<?xml version="1.0" encoding="iso-8859-1"?>
<!-- Generator: Adobe Illustrator 19.0.0, SVG Export Plug-In . SVG Version: 6.00 Build 0)  -->
<svg version="1.1" id="Capa_1" xmlns="http://www.w3.org/2000/svg" xmlns:xlink="http://www.w3.org/1999/xlink" x="0px" y="0px"
	 viewBox="0 0 512 512" style="enable-background:new 0 0 512 512;" xml:space="preserve">
<path style="fill:#E380A1;" d="M391.58,512c-45.621,0-89.203-17.865-122.718-50.307c-4.533-4.387-8.826-9.005-12.861-13.824
	c-4.035,4.82-8.329,9.438-12.861,13.825C209.624,494.135,166.041,512,120.421,512c-20.584,0-40.59-3.677-59.461-10.927
	l-14.889-5.721l-5.232-15.068c-19.326-55.656-7.177-118.257,30.71-164.888c-48.267-35.778-75.564-93.411-70.644-152.12l1.332-15.895
	l13.005-9.236c28.276-20.079,62.064-30.692,97.71-30.692c12.797,0,25.637,1.434,38.217,4.23
	c4.983-16.117,12.229-31.449,21.575-45.495c17.336-26.052,41.124-46.616,68.792-59.468L256.001,0l14.466,6.72
	c27.669,12.853,51.457,33.417,68.791,59.468c9.347,14.044,16.593,29.377,21.576,45.494c12.579-2.795,25.419-4.229,38.216-4.229
	c35.645,0,69.432,10.613,97.71,30.692l13.005,9.236l1.332,15.895c4.919,58.71-22.376,116.341-70.645,152.12
	c37.888,46.632,50.036,109.233,30.71,164.888l-5.232,15.068l-14.889,5.721C432.17,508.323,412.165,512,391.58,512z"/>
<path style="fill:#FFA7C4;" d="M401.982,324.158c-6.244-6.044-12.883-11.407-19.813-16.105c7.879-2.832,15.641-6.381,23.188-10.687
	c42.892-24.471,68.448-67.137,71.618-111.236c-13.811,3.606-29.509,6.149-41.637,3.781c3.604-11.756,13.165-24.34,22.801-34.795
	c-37.227-17.915-83.122-18.311-123.826,2.2c-2.351-45.449-25.368-85.065-59.29-108.536C271.012,63.275,264.875,79.568,256,89.424
	c-8.876-9.856-15.013-26.149-19.024-40.644c-33.922,23.471-56.939,63.087-59.29,108.536c-40.703-20.512-86.599-20.116-123.826-2.2
	c9.636,10.455,19.197,23.039,22.801,34.795c-12.128,2.369-27.826-0.175-41.637-3.781c3.171,44.099,28.727,86.765,71.618,111.236
	c7.548,4.306,15.31,7.855,23.188,10.687c-6.931,4.698-13.57,10.061-19.813,16.105c-34.881,33.761-49.165,80.4-42.169,123.303
	c13.01-6.291,28.214-11.958,40.77-11.943c-1.323,12.459-8.554,26.933-16.18,39.18c43.227,9.28,91.336-3.334,126.818-37.678
	c17.41-16.852,29.674-36.917,36.742-58.12c7.067,21.203,19.332,41.268,36.742,58.12c35.483,34.344,83.592,46.958,126.818,37.678
	c-7.626-12.246-14.856-26.721-16.18-39.18c12.557-0.015,27.76,5.653,40.77,11.943C451.148,404.558,436.863,357.919,401.982,324.158z
	"/>
<path style="fill:#CE4E7D;" d="M319.512,256.511h-44.858l31.72-31.72c3.017-3.017,3.017-7.909,0-10.926
	c-3.017-3.016-7.909-3.017-10.927,0l-31.72,31.719v-44.859c0-4.267-3.458-7.726-7.726-7.726c-4.268,0-7.726,3.459-7.726,7.726
	v44.858l-29.811-29.81c-3.018-3.017-7.91-3.017-10.927,0c-3.017,3.017-3.017,7.91,0,10.926l29.811,29.811h-42.159
	c-4.268,0-7.726,3.459-7.726,7.726c0,4.267,3.458,7.726,7.726,7.726h42.159l-29.811,29.811c-3.017,3.017-3.017,7.909,0,10.926
	c1.509,1.509,3.486,2.263,5.464,2.263c1.977,0,3.955-0.754,5.464-2.263l29.81-29.809v42.159c0,4.267,3.458,7.726,7.726,7.726
	c4.268,0,7.726-3.459,7.726-7.726v-42.159l31.72,31.72c1.509,1.509,3.487,2.263,5.464,2.263c1.977,0,3.955-0.754,5.464-2.263
	c3.017-3.017,3.017-7.91,0-10.926l-31.72-31.72h44.858c4.268,0,7.726-3.459,7.726-7.726
	C327.24,259.971,323.779,256.511,319.512,256.511z"/>
<g>
	<circle style="fill:#E380A1;" cx="256.001" cy="200.72" r="17.748"/>
	<circle style="fill:#E380A1;" cx="300.906" cy="219.326" r="17.748"/>
	<circle style="fill:#E380A1;" cx="319.511" cy="264.241" r="17.748"/>
	<circle style="fill:#E380A1;" cx="300.906" cy="309.147" r="17.748"/>
	<circle style="fill:#E380A1;" cx="256.001" cy="327.752" r="17.748"/>
	<circle style="fill:#E380A1;" cx="211.095" cy="309.147" r="17.748"/>
	<circle style="fill:#E380A1;" cx="192.49" cy="264.241" r="17.748"/>
	<circle style="fill:#E380A1;" cx="211.095" cy="219.326" r="17.748"/>
</g>
<g>
</g>
<g>
</g>
<g>
</g>
<g>
</g>
<g>
</g>
<g>
</g>
<g>
</g>
<g>
</g>
<g>
</g>
<g>
</g>
<g>
</g>
<g>
</g>
<g>
</g>
<g>
</g>
<g>
</g>
</svg>
